<svg width="24" height="24" viewBox="0 0 24 24" fill="none" xmlns="http://www.w3.org/2000/svg">
<path d="M12 22.5C17.799 22.5 22.5 17.799 22.5 12C22.5 6.20101 17.799 1.5 12 1.5C6.20101 1.5 1.5 6.20101 1.5 12C1.5 17.799 6.20101 22.5 12 22.5Z" fill="#262626"/>
<path d="M18.75 11.934C18.75 16.617 16.0187 18.1197 14.5796 16.7817C13.395 15.6907 13.0426 13.3852 11.2609 13.1485C8.99946 12.85 8.80366 16.0098 7.31563 16.0098C5.58285 16.0098 5.25 13.3646 5.25 12.006C5.25 10.6165 5.62201 8.72271 7.10025 8.72271C8.82324 8.72271 8.92114 11.4296 11.0749 11.2855C13.2188 11.1312 13.258 8.31101 14.6482 7.10679C15.862 6.06725 18.75 7.18913 18.75 11.934Z" fill="#B4F9E5"/>
</svg>
