<svg width="103" height="16" viewBox="0 0 103 16" fill="none" xmlns="http://www.w3.org/2000/svg">
<path d="M8.13479 6.99298V4.36894L0 0V2.5164L3.58475 4.5035L5.59234 5.58902L8.13479 6.99298Z" fill="#A5D801"/>
<path d="M10.7948 6.99298L13.3349 5.58902L15.3154 4.5035L18.9024 2.5164V0L10.7948 4.36894V6.99298Z" fill="#A5D801"/>
<path d="M0 9.77403L5.85977 16H12.9522L19 9.56098V6.99298L9.39234 11.8396L0 7.04456V9.77403Z" fill="#A5D801"/>
<path d="M28.204 13V3.06H29.716V7.848L28.988 7.316H35.036L34.308 7.848V3.06H35.82V13H34.308V8.156L35.036 8.688H28.988L29.716 8.156V13H28.204ZM38.3548 15.1V13.882H39.2648C39.5168 13.882 39.7034 13.8447 39.8248 13.77C39.9461 13.6953 40.0394 13.5693 40.1048 13.392L40.3428 12.776H39.8808L37.1928 5.552H38.7608L40.8048 11.404L42.7508 5.552H44.3328L41.3648 13.868C41.2154 14.2973 40.9914 14.61 40.6928 14.806C40.4034 15.002 39.9974 15.1 39.4748 15.1H38.3548ZM45.3449 15.1V5.552H46.7449L46.7869 7.148L46.6189 7.064C46.8056 6.51333 47.1136 6.098 47.5429 5.818C47.9723 5.52867 48.4669 5.384 49.0269 5.384C49.7549 5.384 50.3523 5.566 50.8189 5.93C51.2949 6.28467 51.6449 6.756 51.8689 7.344C52.1023 7.932 52.2189 8.576 52.2189 9.276C52.2189 9.976 52.1023 10.62 51.8689 11.208C51.6449 11.796 51.2949 12.272 50.8189 12.636C50.3523 12.9907 49.7549 13.168 49.0269 13.168C48.6536 13.168 48.3036 13.1027 47.9769 12.972C47.6503 12.8413 47.3703 12.6593 47.1369 12.426C46.9129 12.1833 46.7543 11.8987 46.6609 11.572L46.8289 11.404V15.1H45.3449ZM48.7609 11.88C49.3583 11.88 49.8249 11.6513 50.1609 11.194C50.5063 10.7367 50.6789 10.0973 50.6789 9.276C50.6789 8.45467 50.5063 7.81533 50.1609 7.358C49.8249 6.90067 49.3583 6.672 48.7609 6.672C48.3689 6.672 48.0283 6.77 47.7389 6.966C47.4496 7.15267 47.2256 7.442 47.0669 7.834C46.9083 8.226 46.8289 8.70667 46.8289 9.276C46.8289 9.84533 46.9036 10.326 47.0529 10.718C47.2116 11.11 47.4356 11.404 47.7249 11.6C48.0236 11.7867 48.3689 11.88 48.7609 11.88ZM56.7918 13.168C56.0638 13.168 55.4338 13.0093 54.9018 12.692C54.3791 12.3747 53.9731 11.922 53.6838 11.334C53.4038 10.746 53.2638 10.06 53.2638 9.276C53.2638 8.492 53.4038 7.81067 53.6838 7.232C53.9731 6.644 54.3791 6.19133 54.9018 5.874C55.4244 5.54733 56.0404 5.384 56.7498 5.384C57.4218 5.384 58.0144 5.54267 58.5278 5.86C59.0411 6.168 59.4378 6.616 59.7178 7.204C60.0071 7.792 60.1518 8.50133 60.1518 9.332V9.71H54.8038C54.8411 10.438 55.0324 10.984 55.3778 11.348C55.7324 11.712 56.2084 11.894 56.8058 11.894C57.2444 11.894 57.6084 11.7913 57.8978 11.586C58.1871 11.3807 58.3878 11.1053 58.4998 10.76L60.0398 10.858C59.8438 11.5487 59.4564 12.1087 58.8778 12.538C58.3084 12.958 57.6131 13.168 56.7918 13.168ZM54.8038 8.59H58.5838C58.5371 7.92733 58.3458 7.43733 58.0098 7.12C57.6831 6.80267 57.2631 6.644 56.7498 6.644C56.2178 6.644 55.7791 6.812 55.4338 7.148C55.0978 7.47467 54.8878 7.95533 54.8038 8.59ZM61.6555 13V5.552H63.0135L63.0695 7.526L62.9435 7.484C63.0461 6.812 63.2515 6.322 63.5595 6.014C63.8768 5.706 64.3015 5.552 64.8335 5.552H65.5475V6.882H64.8335C64.4601 6.882 64.1475 6.94267 63.8955 7.064C63.6435 7.18533 63.4521 7.372 63.3215 7.624C63.2001 7.876 63.1395 8.20267 63.1395 8.604V13H61.6555ZM67.1512 13V3.06H71.1272C72.3219 3.06 73.2552 3.34933 73.9272 3.928C74.6086 4.50667 74.9492 5.3 74.9492 6.308C74.9492 6.97067 74.7952 7.54933 74.4872 8.044C74.1886 8.52933 73.7499 8.90733 73.1712 9.178C72.6019 9.43933 71.9206 9.57 71.1272 9.57H69.2792V13H67.1512ZM69.2792 7.778H71.0012C71.5612 7.778 71.9952 7.65667 72.3032 7.414C72.6112 7.162 72.7652 6.79333 72.7652 6.308C72.7652 5.832 72.6112 5.47267 72.3032 5.23C72.0046 4.978 71.5706 4.852 71.0012 4.852H69.2792V7.778ZM79.451 13.168C78.6857 13.168 78.0183 13.0093 77.449 12.692C76.8797 12.3653 76.4363 11.908 76.119 11.32C75.8017 10.732 75.643 10.0413 75.643 9.248C75.643 8.45467 75.8017 7.76867 76.119 7.19C76.4363 6.602 76.8797 6.14467 77.449 5.818C78.0183 5.49133 78.6857 5.328 79.451 5.328C80.2163 5.328 80.8837 5.49133 81.453 5.818C82.0223 6.14467 82.4657 6.602 82.783 7.19C83.1003 7.76867 83.259 8.45467 83.259 9.248C83.259 10.0413 83.1003 10.732 82.783 11.32C82.4657 11.908 82.0223 12.3653 81.453 12.692C80.8837 13.0093 80.2163 13.168 79.451 13.168ZM79.451 11.558C79.9737 11.558 80.3797 11.3573 80.669 10.956C80.9583 10.5453 81.103 9.976 81.103 9.248C81.103 8.52 80.9583 7.95533 80.669 7.554C80.3797 7.14333 79.9737 6.938 79.451 6.938C78.9283 6.938 78.5223 7.14333 78.233 7.554C77.9437 7.95533 77.799 8.52 77.799 9.248C77.799 9.976 77.9437 10.5453 78.233 10.956C78.5223 11.3573 78.9283 11.558 79.451 11.558ZM87.9686 13.168C87.2032 13.168 86.5359 13.0093 85.9666 12.692C85.3972 12.3653 84.9539 11.908 84.6366 11.32C84.3192 10.732 84.1606 10.0413 84.1606 9.248C84.1606 8.45467 84.3192 7.76867 84.6366 7.19C84.9539 6.602 85.3972 6.14467 85.9666 5.818C86.5359 5.49133 87.2032 5.328 87.9686 5.328C88.7339 5.328 89.4012 5.49133 89.9706 5.818C90.5399 6.14467 90.9832 6.602 91.3006 7.19C91.6179 7.76867 91.7766 8.45467 91.7766 9.248C91.7766 10.0413 91.6179 10.732 91.3006 11.32C90.9832 11.908 90.5399 12.3653 89.9706 12.692C89.4012 13.0093 88.7339 13.168 87.9686 13.168ZM87.9686 11.558C88.4912 11.558 88.8972 11.3573 89.1866 10.956C89.4759 10.5453 89.6206 9.976 89.6206 9.248C89.6206 8.52 89.4759 7.95533 89.1866 7.554C88.8972 7.14333 88.4912 6.938 87.9686 6.938C87.4459 6.938 87.0399 7.14333 86.7506 7.554C86.4612 7.95533 86.3166 8.52 86.3166 9.248C86.3166 9.976 86.4612 10.5453 86.7506 10.956C87.0399 11.3573 87.4459 11.558 87.9686 11.558ZM95.1125 13C94.4965 13 94.0158 12.846 93.6705 12.538C93.3252 12.23 93.1525 11.7307 93.1525 11.04V3.06H95.2525V10.816C95.2525 11.04 95.3038 11.1987 95.4065 11.292C95.5092 11.3853 95.6585 11.432 95.8545 11.432H96.3585V13H95.1125Z" fill="#171717"/>
</svg>
