<svg width="21" height="22" viewBox="0 0 21 22" fill="none" xmlns="http://www.w3.org/2000/svg">
<g clip-path="url(#clip0_21080_35289)">
<path d="M20.6858 13.54C19.2833 19.165 13.5854 22.5883 7.95904 21.1856C2.33505 19.7833 -1.08863 14.0857 0.314495 8.46107C1.71639 2.8354 7.41429 -0.588154 13.0389 0.814196C18.6648 2.21655 22.0883 7.91478 20.6857 13.5401L20.6858 13.54H20.6858Z" fill="url(#paint0_linear_21080_35289)"/>
<g clip-path="url(#clip1_21080_35289)">
<path d="M6.36495 13.5243C6.43887 13.4503 6.54052 13.4072 6.64833 13.4072H16.4249C16.6036 13.4072 16.6929 13.6228 16.5666 13.7491L14.6353 15.6804C14.5614 15.7543 14.4597 15.7975 14.3519 15.7975H4.57535C4.39669 15.7975 4.30737 15.5819 4.43366 15.4556L6.36495 13.5243Z" fill="white"/>
<path d="M6.36495 6.31334C6.44195 6.23941 6.5436 6.19629 6.64833 6.19629H16.4249C16.6036 6.19629 16.6929 6.4119 16.5666 6.53819L14.6353 8.46948C14.5614 8.54341 14.4597 8.58653 14.3519 8.58653H4.57535C4.39669 8.58653 4.30737 8.37092 4.43366 8.24463L6.36495 6.31334Z" fill="white"/>
<path d="M14.6353 9.89586C14.5614 9.82193 14.4597 9.77881 14.3519 9.77881H4.57535C4.39669 9.77881 4.30737 9.99442 4.43366 10.1207L6.36495 12.052C6.43887 12.1259 6.54052 12.1691 6.64833 12.1691H16.4249C16.6036 12.1691 16.6929 11.9534 16.5666 11.8271L14.6353 9.89586Z" fill="white"/>
</g>
</g>
<defs>
<linearGradient id="paint0_linear_21080_35289" x1="1.77264" y1="22.0005" x2="21.1794" y2="2.43432" gradientUnits="userSpaceOnUse">
<stop offset="0.08" stop-color="#9945FF"/>
<stop offset="0.3" stop-color="#8752F3"/>
<stop offset="0.5" stop-color="#5497D5"/>
<stop offset="0.6" stop-color="#43B4CA"/>
<stop offset="0.72" stop-color="#28E0B9"/>
<stop offset="0.97" stop-color="#19FB9B"/>
</linearGradient>
<clipPath id="clip0_21080_35289">
<rect width="21" height="21" fill="white" transform="translate(0 0.5)"/>
</clipPath>
<clipPath id="clip1_21080_35289">
<rect width="12.25" height="9.60101" fill="white" transform="translate(4.375 6.19629)"/>
</clipPath>
</defs>
</svg>
