<svg width="24" height="24" viewBox="0 0 24 24" fill="none" xmlns="http://www.w3.org/2000/svg">
<path d="M12 22.5C17.799 22.5 22.5 17.799 22.5 12C22.5 6.20101 17.799 1.5 12 1.5C6.20101 1.5 1.5 6.20101 1.5 12C1.5 17.799 6.20101 22.5 12 22.5Z" fill="#26A17B"/>
<path fill-rule="evenodd" clip-rule="evenodd" d="M13.2201 12.9188V12.9176C13.1518 12.9226 12.7995 12.9439 12.0137 12.9439C11.3862 12.9439 10.9445 12.9251 10.7892 12.9176V12.9195C8.37378 12.8124 6.57093 12.3883 6.57093 11.881C6.57093 11.3743 8.37378 10.9503 10.7892 10.8413V12.4973C10.947 12.5086 11.3993 12.5355 12.0242 12.5355C12.7741 12.5355 13.1499 12.5042 13.2201 12.4979V10.8426C15.6306 10.9509 17.4291 11.375 17.4291 11.881C17.4291 12.3883 15.6306 12.8111 13.2201 12.9188ZM13.2201 10.6703V9.18847H16.5836V6.92871H7.42576V9.18847H10.7892V10.6697C8.05571 10.7962 6 11.3424 6 11.9963C6 12.6501 8.05571 13.1957 10.7892 13.3228V18.0716H13.2201V13.3216C15.9493 13.195 18 12.6495 18 11.9963C18 11.343 15.9493 10.7975 13.2201 10.6703Z" fill="white"/>
</svg>
