<svg width="24" height="24" viewBox="0 0 24 24" fill="none" xmlns="http://www.w3.org/2000/svg">
<path d="M12 22.5C17.8188 22.5 22.5 17.8188 22.5 12C22.5 6.18122 17.8188 1.5 12 1.5C6.18122 1.5 1.5 6.18122 1.5 12C1.5 17.8188 6.18122 22.5 12 22.5Z" fill="#2775CA"/>
<path d="M14.8874 13.6624C14.8874 12.1312 13.9686 11.6062 12.1311 11.3875C10.8186 11.2124 10.5561 10.8625 10.5561 10.2499C10.5561 9.63733 10.9937 9.24369 11.8686 9.24369C12.6561 9.24369 13.0937 9.50619 13.3124 10.1624C13.3562 10.2937 13.4874 10.3812 13.6187 10.3812H14.3186C14.4936 10.3812 14.6249 10.2499 14.6249 10.075V10.0312C14.4498 9.06865 13.6623 8.32494 12.6561 8.23747V7.18747C12.6561 7.01244 12.5249 6.88119 12.3062 6.8374H11.6499C11.4749 6.8374 11.3436 6.96865 11.2998 7.18747V8.19369C9.98733 8.36872 9.15615 9.24369 9.15615 10.3375C9.15615 11.7812 10.0311 12.3499 11.8686 12.5687C13.0937 12.7874 13.4874 13.0499 13.4874 13.75C13.4874 14.45 12.8748 14.9312 12.0437 14.9312C10.9061 14.9312 10.5123 14.4499 10.3811 13.7937C10.3374 13.6187 10.2062 13.5312 10.0749 13.5312H9.33108C9.15615 13.5312 9.0249 13.6624 9.0249 13.8374V13.8812C9.19983 14.9749 9.89987 15.7624 11.3436 15.9812V17.0312C11.3436 17.2062 11.4749 17.3374 11.6936 17.3812H12.3498C12.5249 17.3812 12.6561 17.2499 12.6999 17.0312V15.9812C14.0124 15.7624 14.8874 14.8437 14.8874 13.6624Z" fill="white"/>
<path d="M9.76863 18.2562C6.35613 17.0312 4.60609 13.225 5.87491 9.85618C6.53116 8.01868 7.97491 6.61871 9.76863 5.96246C9.94366 5.875 10.0311 5.74375 10.0311 5.52493V4.91246C10.0311 4.73743 9.94366 4.60618 9.76863 4.5625C9.72484 4.5625 9.63738 4.5625 9.59359 4.60618C5.43738 5.91868 3.16234 10.3375 4.47484 14.4937C5.26234 16.9437 7.14363 18.825 9.59359 19.6125C9.76863 19.6999 9.94366 19.6125 9.98734 19.4374C10.0311 19.3937 10.0311 19.35 10.0311 19.2625V18.6499C10.0311 18.5187 9.89988 18.3437 9.76863 18.2562ZM14.4062 4.60618C14.2311 4.51871 14.0561 4.60618 14.0124 4.78121C13.9686 4.825 13.9686 4.86868 13.9686 4.95625V5.56871C13.9686 5.74375 14.0999 5.91868 14.2311 6.00625C17.6436 7.23118 19.3937 11.0374 18.1248 14.4062C17.4686 16.2437 16.0248 17.6437 14.2311 18.3C14.0561 18.3874 13.9686 18.5187 13.9686 18.7375V19.35C13.9686 19.525 14.0561 19.6562 14.2311 19.6999C14.2749 19.6999 14.3624 19.6999 14.4062 19.6562C18.5624 18.3438 20.8374 13.9249 19.5249 9.76871C18.7374 7.27496 16.8123 5.39368 14.4062 4.60618Z" fill="white"/>
</svg>
